<svg width="60" height="60" viewBox="0 0 60 60" fill="none" xmlns="http://www.w3.org/2000/svg">
<path d="M16.25 20C18.3211 20 20 18.3211 20 16.25C20 14.1789 18.3211 12.5 16.25 12.5C14.1789 12.5 12.5 14.1789 12.5 16.25C12.5 18.3211 14.1789 20 16.25 20Z" fill="#0F0F0F"/>
<path d="M12.5 25C12.5 23.6193 13.6193 22.5 15 22.5H17.5C18.8807 22.5 20 23.6193 20 25V45C20 46.3807 18.8807 47.5 17.5 47.5H15C13.6193 47.5 12.5 46.3807 12.5 45V25Z" fill="#0F0F0F"/>
<path d="M27.5 47.5H30C31.3807 47.5 32.5 46.3807 32.5 45V33.75C32.5 30 40 27.5 40 32.5V45.001C40 46.3818 41.1193 47.5 42.5 47.5H45C46.3807 47.5 47.5 46.3807 47.5 45V30C47.5 25 43.75 22.5 38.75 22.5C33.75 22.5 32.5 26.25 32.5 26.25V25C32.5 23.6193 31.3807 22.5 30 22.5H27.5C26.1193 22.5 25 23.6193 25 25V45C25 46.3807 26.1193 47.5 27.5 47.5Z" fill="#0F0F0F"/>
<path fill-rule="evenodd" clip-rule="evenodd" d="M50 2.5C54.1423 2.5 57.5 5.85788 57.5 10V50C57.5 54.1423 54.1423 57.5 50 57.5H10C5.85788 57.5 2.5 54.1423 2.5 50V10C2.5 5.85788 5.85788 2.5 10 2.5H50ZM50 7.5C51.3807 7.5 52.5 8.6193 52.5 10V50C52.5 51.3807 51.3807 52.5 50 52.5H10C8.6193 52.5 7.5 51.3807 7.5 50V10C7.5 8.6193 8.6193 7.5 10 7.5H50Z" fill="#0F0F0F"/>
</svg>
